<svg width="25" height="25" viewBox="0 0 25 25" fill="none" xmlns="http://www.w3.org/2000/svg">
<path d="M18.3334 6H6.66665C6.22468 6 5.8007 6.18062 5.48818 6.50206C5.17558 6.82359 5 7.25961 5 7.7143V16.2857C5 16.7404 5.17558 17.1764 5.48818 17.4979C5.8007 17.8194 6.22468 18 6.66665 18H18.3334C18.7753 18 19.1993 17.8194 19.5118 17.4979C19.8244 17.1764 20 16.7404 20 16.2857V7.7143C20 7.25961 19.8244 6.82359 19.5118 6.50206C19.1993 6.18062 18.7753 6 18.3334 6ZM18.3334 9.42859L12.5 13.7143L6.66665 9.42859V7.7143L12.5 12L18.3334 7.7143V9.42859Z" fill="#454545"/>
</svg>
