<svg width="25" height="25" viewBox="0 0 25 25" fill="none" xmlns="http://www.w3.org/2000/svg">
<path d="M16.9365 11.6489C14.5189 10.2132 10.5312 10.0812 8.22335 10.7816C7.85262 10.894 7.46075 10.6848 7.34848 10.3143C7.2362 9.9434 7.44515 9.55175 7.81602 9.4391C10.4654 8.63495 14.8693 8.7902 17.6525 10.4423C17.986 10.6403 18.0951 11.0708 17.8976 11.4035C17.6998 11.7369 17.269 11.8468 16.9364 11.6489H16.9365ZM16.8573 13.7754C16.6877 14.0506 16.3278 14.137 16.0529 13.9679C14.0375 12.7291 10.9641 12.3701 8.57953 13.0939C8.27038 13.1873 7.94367 13.0131 7.84977 12.7043C7.805 12.556 7.82098 12.3958 7.89403 12.2592C7.96715 12.1225 8.09143 12.0203 8.2397 11.9752C10.9636 11.1485 14.35 11.5488 16.6649 12.9714C16.9398 13.1407 17.0262 13.5007 16.8573 13.7754ZM15.9396 15.8175C15.9076 15.87 15.8656 15.9156 15.8161 15.9519C15.7664 15.9881 15.7102 16.0142 15.6505 16.0287C15.5908 16.0432 15.5288 16.0456 15.4681 16.0361C15.4074 16.0266 15.3492 16.0052 15.2968 15.9731C13.5356 14.8968 11.3188 14.6536 8.70815 15.25C8.6483 15.2637 8.58642 15.2654 8.5259 15.2552C8.46537 15.2449 8.40755 15.2228 8.35557 15.1902C8.3036 15.1576 8.2586 15.115 8.22305 15.065C8.1875 15.0149 8.16223 14.9584 8.14858 14.8986C8.13478 14.8387 8.13298 14.7768 8.14325 14.7162C8.15345 14.6557 8.1755 14.5978 8.2082 14.5457C8.24083 14.4937 8.28343 14.4487 8.33353 14.4132C8.38363 14.3776 8.44018 14.3524 8.5001 14.3388C11.357 13.6858 13.8076 13.9668 15.7845 15.1747C15.8368 15.2067 15.8824 15.2488 15.9186 15.2984C15.9547 15.3481 15.9808 15.4043 15.9952 15.464C16.0096 15.5237 16.0121 15.5857 16.0026 15.6463C15.9931 15.707 15.9717 15.7652 15.9396 15.8175ZM12.4999 5C8.3579 5 5 8.35783 5 12.4999C5 16.6423 8.3579 20 12.4999 20C16.6421 20 20 16.6423 20 12.4999C20 8.3579 16.6422 5 12.4999 5" fill="#454545"/>
</svg>
